<?xml version="1.0" ?><!-- Uploaded to: SVG Repo, www.svgrepo.com, Generator: SVG Repo Mixer Tools -->
<svg width="800px" height="800px" viewBox="0 0 64 64" data-name="Layer 1" id="Layer_1" xmlns="http://www.w3.org/2000/svg"><defs><style>.cls-1{fill:#190933;}</style></defs><title/><path class="cls-1" d="M17.75,2.15a6.2,6.2,0,0,0-8.27-1A60.47,60.47,0,0,0,1.89,7.64c-7.49,7.49,8.92,30.55,16.42,38.05C24.47,51.85,41.13,64,51,64a7.22,7.22,0,0,0,5.32-1.91,61.32,61.32,0,0,0,6.49-7.59,6.2,6.2,0,0,0-1-8.27c-3.69-3.16-12.62-10.16-15.75-7-2.22,2.23-8.13,8.14-11.22,5.06L19.72,29.12c-3.08-3.09,2.83-9,5.06-11.22C27.91,14.77,20.91,5.84,17.75,2.15ZM16.23,3.44c5.74,6.72,8.17,12,7.13,13-.43.44-1,1-1.58,1.63L10.78,2.7A4.18,4.18,0,0,1,16.23,3.44Zm31.29,37.2c1-1,6.32,1.39,13,7.13a4.19,4.19,0,0,1,.81,5.33L46.51,41.63ZM18.31,30.53,33.47,45.69c3.71,3.71,9.08-.36,12.31-3.37l15,11.6A60.13,60.13,0,0,1,55,60.7c-5.53,5.52-26.15-7.36-35.23-16.42S-2.22,14.58,3.3,9.05A59.26,59.26,0,0,1,10,3.29L21.09,18.86C18.18,22.13,14.84,27.06,18.31,30.53Z"/><path class="cls-1" d="M32,0a1,1,0,0,0,0,2A30,30,0,0,1,62,32a1,1,0,0,0,2,0A32,32,0,0,0,32,0Z"/><path class="cls-1" d="M57.83,30h.11a1,1,0,0,0,.88-1.1A26.86,26.86,0,0,0,35.11,5.18a1,1,0,0,0-.22,2A24.84,24.84,0,0,1,56.83,29.11,1,1,0,0,0,57.83,30Z"/><path class="cls-1" d="M51.17,26.29a1,1,0,1,0,1.92-.58A22.05,22.05,0,0,0,37.24,10.63a1,1,0,0,0-.48,1.94A20.05,20.05,0,0,1,51.17,26.29Z"/><path class="cls-1" d="M34,22a4,4,0,0,0-8,0,1,1,0,0,0,2,0,2,2,0,0,1,4,0c0,1.79-3.41,4.73-5.56,6.17A1,1,0,0,0,27,30h6a1,1,0,0,0,0-2H30C31.8,26.43,34,24.12,34,22Z"/><path class="cls-1" d="M42,30a1,1,0,0,0,1-1V19a1,1,0,0,0-2,0v4H39V19a1,1,0,0,0-2,0v4a2,2,0,0,0,2,2h2v4A1,1,0,0,0,42,30Z"/><path class="cls-1" d="M35,34h5c-1.26,1.82-3,4.78-3,7a1,1,0,0,0,2,0c0-2.17,2.73-6.06,3.78-7.38a1,1,0,0,0,.12-1A1,1,0,0,0,42,32H35a1,1,0,0,0,0,2Z"/></svg>